# xmcd CD database file
#
# Track frame offsets:
#	150
#	17937
#	36222
#	66648
#	78034
#	92053
#	112661
#	127858
#	148599
#	164174
#	174455
#	186688
#
# Disc length: 2855 seconds
#
# Revision: 0
# Processed by: cddbd v1.5.1PL0 Copyright (c) Steve Scherf et al.
# Submitted via: CDex 1.51
#
DISCID=a50b250c
DTITLE=CHRISTOPHE ERARD and RAPHAEL HOFMANN - Balafonie
DYEAR=1999
DGENRE=New Age
TTITLE0=Eveil
TTITLE1=Balafonie
TTITLE2=Balade Imaginaire
TTITLE3=Printemps
TTITLE4=Eté
TTITLE5=Automne
TTITLE6=Hivers
TTITLE7=Mali
TTITLE8=Bali
TTITLE9=Khalifa
TTITLE10=Grizzly
TTITLE11=Souvenirs
EXTD=YEAR: 1999
EXTT0=
EXTT1=
EXTT2=
EXTT3=
EXTT4=
EXTT5=
EXTT6=
EXTT7=
EXTT8=
EXTT9=
EXTT10=
EXTT11=
PLAYORDER=
